inDegrees=no
num_controls=7
num_derivatives=13
num_iterations=142
num_multipliers=7
num_parameters=0
num_slacks=7
num_states=26
objective=0.544623
objective_accelerations=0.058372
objective_balance=0.003264
objective_effort=0.045052
objective_height=0.430309
objective_ligament=0.007626
solver_duration=1445.874887
status=Solve_Succeeded
success=true
DataType=double
version=3
OpenSimVersion=4.5
endheader
time	/jointset/ground_pelvis/pelvis_tilt/value	/jointset/ground_pelvis/pelvis_tx/value	/jointset/ground_pelvis/pelvis_ty/value	/jointset/hip_r/hip_flexion_r/value	/jointset/hip_r/hip_adduction_r/value	/jointset/hip_r/hip_rotation_r/value	/jointset/back/lumbar_extension/value	/jointset/patellofemoral_r/patellar_flexion_r/value	/jointset/knee_r/knee_flexion_r/value	/jointset/knee_r/knee_adduction_r/value	/jointset/knee_r/knee_rotation_r/value	/jointset/ankle_r/ankle_angle_r/value	/jointset/subtalar_r/subtalar_angle_r/value	/jointset/ground_pelvis/pelvis_tilt/speed	/jointset/ground_pelvis/pelvis_tx/speed	/jointset/ground_pelvis/pelvis_ty/speed	/jointset/hip_r/hip_flexion_r/speed	/jointset/hip_r/hip_adduction_r/speed	/jointset/hip_r/hip_rotation_r/speed	/jointset/back/lumbar_extension/speed	/jointset/patellofemoral_r/patellar_flexion_r/speed	/jointset/knee_r/knee_flexion_r/speed	/jointset/knee_r/knee_adduction_r/speed	/jointset/knee_r/knee_rotation_r/speed	/jointset/ankle_r/ankle_angle_r/speed	/jointset/subtalar_r/subtalar_angle_r/speed	/forceset/tau_hip_flexion_r	/forceset/tau_hip_adduction_r	/forceset/tau_hip_rotation_r	/forceset/tau_knee_flexion_r	/forceset/tau_ankle_angle_r	/forceset/tau_subtalar_angle_r	/forceset/tau_lumbar_extension	lambda_cid13_p0	lambda_cid14_p0	lambda_cid14_p1	lambda_cid14_p2	lambda_cid14_p3	lambda_cid14_p4	lambda_cid14_p5	/jointset/ground_pelvis/pelvis_tilt/accel	/jointset/ground_pelvis/pelvis_tx/accel	/jointset/ground_pelvis/pelvis_ty/accel	/jointset/hip_r/hip_flexion_r/accel	/jointset/hip_r/hip_adduction_r/accel	/jointset/hip_r/hip_rotation_r/accel	/jointset/back/lumbar_extension/accel	/jointset/patellofemoral_r/patellar_flexion_r/accel	/jointset/knee_r/knee_flexion_r/accel	/jointset/knee_r/knee_adduction_r/accel	/jointset/knee_r/knee_rotation_r/accel	/jointset/ankle_r/ankle_angle_r/accel	/jointset/subtalar_r/subtalar_angle_r/accel	gamma_cid13_p0	gamma_cid14_p0	gamma_cid14_p1	gamma_cid14_p2	gamma_cid14_p3	gamma_cid14_p4	gamma_cid14_p5
0.5	-0.1809537698051812	0.01233951046480435	0.8181839079102846	0.9364510629192667	-0.222605527978706	-0.1226764840262282	-0.3358323732810164	0.8482161943702073	0.8482161943702194	-0.008842684959770307	0.1745183108238226	0.2734017509269273	0.06955448631150997	-0.4716013908956797	-0.1629717268751554	-0.5194030438369526	2.064084815772904	0.002512410931268479	0.2169210318550921	-0.5954689568739139	2.101725833117512	2.101725833118915	-0.4216671371068644	0.000118770853252116	0.6169537030009569	0.1904766567060147	-0.1291051969007364	-0.02115754677230897	0.01274282082229418	-0.363786528565272	0.09476715535379945	-0.004905492514733549	0.1715689957518704	-22.20215054144646	-10.72794480426504	-1.298848613614634	-2.428422701649551	-2.285546747540282	-657.7270243628899	61.99431429482878	0.3746384757001081	0.5558092976461843	-0.5393228934763447	-1.287259799873177	-0.1846178188807398	-0.7314116453508493	1.699610156009621	-1.391445426736733	-1.391445426736731	0.4457724026908209	-0.06029133712801128	-0.6638324013164204	-0.2613723141465829	-1.345125758900671e-07	8.745233656746476e-08	2.547692236742788e-06	8.296834165562036e-07	-3.562770673432998e-07	-2.630856960508092e-08	1.269152073161107e-06
0.51	-0.1856501800074371	0.01073770073915972	0.812964132877269	0.9570244751362474	-0.2225901429711523	-0.1205461922225123	-0.3417016883292461	0.8691606590603969	0.8691606590607054	-0.01303742492366667	0.1745189907874798	0.2795368446401545	0.07144504458211071	-0.4676175062933202	-0.1573810854720946	-0.5244303083869233	2.050330448750935	0.0005713929986518321	0.2090984864155785	-0.5783310971849479	2.086862519896743	2.086862519898055	-0.417302040123355	4.087191402259613e-05	0.6099618888034098	0.1876007789494006	-0.136142062251731	-0.01896846337863776	0.01280400317762405	-0.3675466841815245	0.09125820550294109	-0.00406662579062482	0.1778028798962613	-20.82561588830528	-12.11121201070422	-1.329940787349948	-2.248461263856002	-1.621809192039248	-662.9740429541883	61.86319509261107	0.4197322761595609	0.5620109284559763	-0.466201567330308	-1.459603879605244	-0.1976473114961512	-0.8136708640272551	1.730317213455828	-1.579433054237202	-1.579433054250737	0.4290093535621939	0.02206406911626843	-0.7323934884392548	-0.305476280159732	-1.414174465043521e-07	-8.9480685471856e-09	2.019107765604013e-06	-4.048416020633826e-09	-2.293960391818234e-07	-1.180087228335165e-07	1.158977126216225e-06
0.52	-0.1903048575989397	0.009192061300909644	0.807697730532439	0.9774523279377586	-0.2225939288491333	-0.1184953248473469	-0.347397736112963	0.88994735886148	0.8899473588620858	-0.01718908771625132	0.1745196124100349	0.2855989126995132	0.07330588792039713	-0.4632548687447279	-0.1517376693962445	-0.5287285061998085	2.034972932679108	-0.001321766175726479	0.201036146145039	-0.5608155039713482	2.070172855296368	2.07017285529759	-0.4130517028445986	0.0001071026322606672	0.6023485722272455	0.1845336702431506	-0.1431789276027204	-0.0167793799849652	0.01286518553295797	-0.3713068397977765	0.08774925565208272	-0.003227759066514253	0.1840367640406568	-19.4472225417007	-13.50000402642727	-1.360203062820635	-2.070684278350917	-0.9575852570936583	-668.3059035273152	61.77652273383698	0.4503890649467079	0.5663642322040192	-0.3935095460592712	-1.60788960984477	-0.175046067233063	-0.7793706115560282	1.775156860936404	-1.756715702657857	-1.756715702657869	0.4228204617401929	-0.03146540563451326	-0.7881328770399503	-0.2996185040737347	-1.344921061959348e-07	-3.475316656559775e-08	1.759279414923214e-06	-2.454512163092017e-07	-1.822081409373673e-07	-1.393573015705627e-07	1.064659121967138e-06
0.53	-0.1949140082432193	0.0077031898726285	0.8023920365254155	0.9977185548538957	-0.2226165609648514	-0.1165248271397617	-0.3529167360174933	0.9105583668147861	0.9105583668150253	-0.02129764595611273	0.1745208120975301	0.2915820309886853	0.07513491864356776	-0.4585091234095704	-0.1460200576724171	-0.5322842556235325	2.017997732592642	-0.003204954957037909	0.1930778710887034	-0.5429219727954108	2.051755138045718	2.051755138047081	-0.4086323085421036	0.0001354007968175347	0.5942042602166863	0.1812350320183352	-0.1499587550306505	-0.01517565517645724	0.01291110128170295	-0.375648160210691	0.0852119086665684	-0.002345015528745523	0.1901157750593065	-18.07503986094619	-14.57262301049488	-1.308247528984819	-1.914927956337395	-0.6367549217431128	-673.7265011079294	61.91976923832237	0.4965814048278863	0.5769119460005609	-0.3177318174738286	-1.783550409998442	-0.1949466922154647	-0.8020698983008437	1.805826866871425	-1.925313163188867	-1.925313163167589	0.4558640926250983	0.02032097073072503	-0.8382519544241869	-0.3503912045429285	-1.29271997062203e-07	-5.762262605868865e-08	1.525532007734068e-06	-4.556901927338009e-07	-1.40966746613868e-07	-1.525263097312855e-07	9.631294091346977e-07
0.54	-0.1994737186067432	0.006271985022291283	0.7970545601887657	1.017806786728777	-0.2226580232501093	-0.1146335149718661	-0.3582549254860746	0.9309769949102	0.9309769949100776	-0.0253611372173258	0.1745223634753146	0.2974815718394799	0.07692988203991874	-0.4533668125933031	-0.1402043538074587	-0.5350849721250522	1.999373924428136	-0.005087800083760688	0.1851990382072258	-0.5246534167815093	2.031696883718255	2.03169688371976	-0.4040383071147705	0.0001774406905718571	0.5856330845517158	0.1777202048792199	-0.1567385824585765	-0.01357193036794966	0.01295701703047328	-0.3799894806236044	0.08267456168105353	-0.001462271990977959	0.19619478607796	-16.71246916383082	-15.64886641932427	-1.253404800116309	-1.763654308354815	-0.3286336023947576	-679.21219243811	62.11477106079724	0.5297021611687093	0.5859826604301724	-0.2425029616184246	-1.937611225452975	-0.1749773363153198	-0.7634821765844504	1.8501618285292	-2.084823118020567	-2.084823118020664	0.4577418867078211	-0.02871705979504491	-0.8735056079221976	-0.3428562869337066	-1.259385266749318e-07	-7.724414505567943e-08	1.320640112493132e-06	-6.314500448833706e-07	-1.063044630114273e-07	-1.566455802330974e-07	8.536207846781231e-07
0.55	-0.203980127944475	0.00489928784230525	0.7916928756482824	1.037700796975684	-0.2227182904127877	-0.1128199990160236	-0.3634088463706972	0.9511869465382539	0.9511869465384543	-0.02937741539510806	0.1745240614994184	0.3032932050124673	0.0786885765028502	-0.4478585219513689	-0.1343321129025972	-0.5371232235797965	1.979175035447786	-0.006959804788634394	0.177506273551795	-0.5060969210806807	2.010024349957494	2.010024349958641	-0.3992037333444428	0.0001721010357470113	0.5766165722648795	0.1739857422353768	-0.1633210960161854	-0.01191466743800508	0.01297486914369946	-0.3842931471057414	0.0799068291881621	-0.0007306803089090292	0.2020304794871421	-15.36229430721101	-16.81334568521882	-1.292660921997084	-1.582525039335177	0.1810088743558184	-684.6664260802964	62.15326151942505	0.5698623332028312	0.5882727189496456	-0.165211157128451	-2.099003384044005	-0.1924713509049217	-0.7720509493655581	1.863469300260745	-2.248807471297152	-2.248807471350813	0.4985120338051917	0.01493237850762636	-0.9273059855496366	-0.393578593893356	-1.230420282524745e-07	-9.672300211013e-08	1.113460918647583e-06	-8.032704011999241e-07	-7.225410495749511e-08	-1.580326152709291e-07	7.317436669092239e-07
0.5600000000000001	-0.2084297604122894	0.003585398654054907	0.7863146636093062	1.057385223202842	-0.2227971094851806	-0.111083386174605	-0.3683761871264315	0.9711721050354618	0.9711721050359812	-0.03334490845286438	0.174525981086336	0.3090123566732891	0.08040895887118649	-0.4420114386095476	-0.1284427554603208	-0.5383904718235848	1.957457120478717	-0.008798182026768657	0.1698184153226368	-0.4873373910038066	1.986738257548998	1.986738257549786	-0.394281283109717	0.0002217532542759364	0.5671367821186311	0.1700577859601838	-0.1699036095737914	-0.01025740450806288	0.01299272125691733	-0.3885968135878787	0.07713909669526969	9.113731563768906e-07	0.2078661728963271	-14.02678729365984	-17.98141273756732	-1.32907355961227	-1.405814633757976	0.6759714715975079	-690.1823645589664	62.24705054522728	0.5974607011461722	0.5894059679131276	-0.08830231942723756	-2.241416423196565	-0.1682518429674164	-0.7625008913299414	1.890768703738315	-2.407534847567721	-2.407534847567959	0.4753171795874302	-0.01771868512432553	-0.9661611798046233	-0.3815550132036654	-1.20669896187794e-07	-1.160306648335323e-07	9.03536966476496e-07	-9.703633625168584e-07	-3.89380575617731e-08	-1.561409677519846e-07	5.950243571655356e-07
